<mxfile host="app.diagrams.net" modified="2024-01-16T09:26:37.952Z" agent="Mozilla/5.0 (Macintosh; Intel Mac OS X 10_15_7) AppleWebKit/537.36 (KHTML, like Gecko) Chrome/120.0.0.0 Safari/537.36" etag="nQ5EV-jnI-nbXjmvbNHx" version="21.8.2" type="github">
  <diagram id="C5RBs43oDa-KdzZeNtuy" name="Page-1">
    <mxGraphModel dx="2483" dy="1092" grid="1" gridSize="10" guides="1" tooltips="1" connect="1" arrows="1" fold="1" page="1" pageScale="1" pageWidth="827" pageHeight="1169" math="0" shadow="0">
      <root>
        <mxCell id="WIyWlLk6GJQsqaUBKTNV-0" />
        <mxCell id="WIyWlLk6GJQsqaUBKTNV-1" parent="WIyWlLk6GJQsqaUBKTNV-0" />
        <mxCell id="uPeK7lrKcTbneWnr5-uw-9" value="AWS SES" style="rounded=0;whiteSpace=wrap;html=1;" vertex="1" parent="WIyWlLk6GJQsqaUBKTNV-1">
          <mxGeometry x="320" width="120" height="60" as="geometry" />
        </mxCell>
        <mxCell id="uPeK7lrKcTbneWnr5-uw-10" value="" style="group" vertex="1" connectable="0" parent="WIyWlLk6GJQsqaUBKTNV-1">
          <mxGeometry x="760" y="340" width="120" height="60" as="geometry" />
        </mxCell>
        <mxCell id="uPeK7lrKcTbneWnr5-uw-11" value="" style="endArrow=none;html=1;rounded=0;movable=1;resizable=1;rotatable=1;deletable=1;editable=1;locked=0;connectable=1;" edge="1" parent="uPeK7lrKcTbneWnr5-uw-10">
          <mxGeometry width="50" height="50" relative="1" as="geometry">
            <mxPoint as="sourcePoint" />
            <mxPoint x="120" as="targetPoint" />
          </mxGeometry>
        </mxCell>
        <mxCell id="uPeK7lrKcTbneWnr5-uw-12" value="" style="endArrow=none;html=1;rounded=0;movable=1;resizable=1;rotatable=1;deletable=1;editable=1;locked=0;connectable=1;" edge="1" parent="uPeK7lrKcTbneWnr5-uw-10">
          <mxGeometry width="50" height="50" relative="1" as="geometry">
            <mxPoint y="60" as="sourcePoint" />
            <mxPoint x="120" y="60" as="targetPoint" />
          </mxGeometry>
        </mxCell>
        <mxCell id="uPeK7lrKcTbneWnr5-uw-13" value="DB" style="text;html=1;strokeColor=none;fillColor=none;align=center;verticalAlign=middle;whiteSpace=wrap;rounded=0;movable=1;resizable=1;rotatable=1;deletable=1;editable=1;locked=0;connectable=1;" vertex="1" parent="uPeK7lrKcTbneWnr5-uw-10">
          <mxGeometry x="30" y="15" width="60" height="30" as="geometry" />
        </mxCell>
        <mxCell id="uPeK7lrKcTbneWnr5-uw-21" value="" style="group" vertex="1" connectable="0" parent="WIyWlLk6GJQsqaUBKTNV-1">
          <mxGeometry x="150" y="70" width="311" height="230" as="geometry" />
        </mxCell>
        <mxCell id="uPeK7lrKcTbneWnr5-uw-16" value="" style="endArrow=none;dashed=1;html=1;rounded=0;" edge="1" parent="uPeK7lrKcTbneWnr5-uw-21">
          <mxGeometry width="50" height="50" relative="1" as="geometry">
            <mxPoint x="311" as="sourcePoint" />
            <mxPoint as="targetPoint" />
          </mxGeometry>
        </mxCell>
        <mxCell id="uPeK7lrKcTbneWnr5-uw-18" value="" style="endArrow=none;dashed=1;html=1;rounded=0;" edge="1" parent="uPeK7lrKcTbneWnr5-uw-21">
          <mxGeometry width="50" height="50" relative="1" as="geometry">
            <mxPoint y="230" as="sourcePoint" />
            <mxPoint as="targetPoint" />
          </mxGeometry>
        </mxCell>
        <mxCell id="uPeK7lrKcTbneWnr5-uw-19" value="" style="endArrow=none;dashed=1;html=1;rounded=0;" edge="1" parent="uPeK7lrKcTbneWnr5-uw-21">
          <mxGeometry width="50" height="50" relative="1" as="geometry">
            <mxPoint x="311" y="230" as="sourcePoint" />
            <mxPoint x="311" as="targetPoint" />
          </mxGeometry>
        </mxCell>
        <mxCell id="uPeK7lrKcTbneWnr5-uw-20" value="" style="endArrow=none;dashed=1;html=1;rounded=0;" edge="1" parent="uPeK7lrKcTbneWnr5-uw-21">
          <mxGeometry width="50" height="50" relative="1" as="geometry">
            <mxPoint x="311" y="230" as="sourcePoint" />
            <mxPoint y="230" as="targetPoint" />
          </mxGeometry>
        </mxCell>
        <mxCell id="uPeK7lrKcTbneWnr5-uw-22" value="S3" style="text;html=1;strokeColor=none;fillColor=none;align=center;verticalAlign=middle;whiteSpace=wrap;rounded=0;" vertex="1" parent="uPeK7lrKcTbneWnr5-uw-21">
          <mxGeometry width="73.17647058823529" height="40.58823529411765" as="geometry" />
        </mxCell>
        <mxCell id="uPeK7lrKcTbneWnr5-uw-31" value="" style="group" vertex="1" connectable="0" parent="uPeK7lrKcTbneWnr5-uw-21">
          <mxGeometry x="27.5" y="40.59" width="256" height="65.59" as="geometry" />
        </mxCell>
        <mxCell id="uPeK7lrKcTbneWnr5-uw-32" value="" style="endArrow=none;html=1;rounded=0;movable=1;resizable=1;rotatable=1;deletable=1;editable=1;locked=0;connectable=1;" edge="1" parent="uPeK7lrKcTbneWnr5-uw-31">
          <mxGeometry width="50" height="50" relative="1" as="geometry">
            <mxPoint as="sourcePoint" />
            <mxPoint x="256" as="targetPoint" />
          </mxGeometry>
        </mxCell>
        <mxCell id="uPeK7lrKcTbneWnr5-uw-33" value="" style="endArrow=none;html=1;rounded=0;movable=1;resizable=1;rotatable=1;deletable=1;editable=1;locked=0;connectable=1;" edge="1" parent="uPeK7lrKcTbneWnr5-uw-31">
          <mxGeometry width="50" height="50" relative="1" as="geometry">
            <mxPoint y="65.59" as="sourcePoint" />
            <mxPoint x="256" y="65.59" as="targetPoint" />
          </mxGeometry>
        </mxCell>
        <mxCell id="uPeK7lrKcTbneWnr5-uw-34" value="MC Static Data" style="text;html=1;strokeColor=none;fillColor=none;align=center;verticalAlign=middle;whiteSpace=wrap;rounded=0;movable=1;resizable=1;rotatable=1;deletable=1;editable=1;locked=0;connectable=1;" vertex="1" parent="uPeK7lrKcTbneWnr5-uw-31">
          <mxGeometry x="30" y="16.3975" width="210" height="32.795" as="geometry" />
        </mxCell>
        <mxCell id="uPeK7lrKcTbneWnr5-uw-5" value="" style="group" vertex="1" connectable="0" parent="uPeK7lrKcTbneWnr5-uw-21">
          <mxGeometry x="27.5" y="130" width="256" height="65.59" as="geometry" />
        </mxCell>
        <mxCell id="uPeK7lrKcTbneWnr5-uw-6" value="" style="endArrow=none;html=1;rounded=0;movable=1;resizable=1;rotatable=1;deletable=1;editable=1;locked=0;connectable=1;" edge="1" parent="uPeK7lrKcTbneWnr5-uw-5">
          <mxGeometry width="50" height="50" relative="1" as="geometry">
            <mxPoint as="sourcePoint" />
            <mxPoint x="256" as="targetPoint" />
          </mxGeometry>
        </mxCell>
        <mxCell id="uPeK7lrKcTbneWnr5-uw-7" value="" style="endArrow=none;html=1;rounded=0;movable=1;resizable=1;rotatable=1;deletable=1;editable=1;locked=0;connectable=1;" edge="1" parent="uPeK7lrKcTbneWnr5-uw-5">
          <mxGeometry width="50" height="50" relative="1" as="geometry">
            <mxPoint y="65.59" as="sourcePoint" />
            <mxPoint x="256" y="65.59" as="targetPoint" />
          </mxGeometry>
        </mxCell>
        <mxCell id="uPeK7lrKcTbneWnr5-uw-8" value="CAT Static Product Data" style="text;html=1;strokeColor=none;fillColor=none;align=center;verticalAlign=middle;whiteSpace=wrap;rounded=0;movable=1;resizable=1;rotatable=1;deletable=1;editable=1;locked=0;connectable=1;" vertex="1" parent="uPeK7lrKcTbneWnr5-uw-5">
          <mxGeometry x="30" y="16.3975" width="210" height="32.795" as="geometry" />
        </mxCell>
        <mxCell id="uPeK7lrKcTbneWnr5-uw-89" value="" style="group" vertex="1" connectable="0" parent="WIyWlLk6GJQsqaUBKTNV-1">
          <mxGeometry x="-800" y="40" width="80" height="80" as="geometry" />
        </mxCell>
        <mxCell id="uPeK7lrKcTbneWnr5-uw-85" value="" style="endArrow=none;dashed=1;html=1;rounded=0;" edge="1" parent="uPeK7lrKcTbneWnr5-uw-89">
          <mxGeometry width="50" height="50" relative="1" as="geometry">
            <mxPoint as="sourcePoint" />
            <mxPoint x="80" as="targetPoint" />
          </mxGeometry>
        </mxCell>
        <mxCell id="uPeK7lrKcTbneWnr5-uw-86" value="" style="endArrow=none;dashed=1;html=1;rounded=0;" edge="1" parent="uPeK7lrKcTbneWnr5-uw-89">
          <mxGeometry width="50" height="50" relative="1" as="geometry">
            <mxPoint x="80" y="80" as="sourcePoint" />
            <mxPoint x="80" as="targetPoint" />
          </mxGeometry>
        </mxCell>
        <mxCell id="uPeK7lrKcTbneWnr5-uw-87" value="" style="endArrow=none;dashed=1;html=1;rounded=0;" edge="1" parent="uPeK7lrKcTbneWnr5-uw-89">
          <mxGeometry width="50" height="50" relative="1" as="geometry">
            <mxPoint y="80" as="sourcePoint" />
            <mxPoint x="80" y="80" as="targetPoint" />
          </mxGeometry>
        </mxCell>
        <mxCell id="uPeK7lrKcTbneWnr5-uw-88" value="" style="endArrow=none;dashed=1;html=1;rounded=0;" edge="1" parent="uPeK7lrKcTbneWnr5-uw-89">
          <mxGeometry width="50" height="50" relative="1" as="geometry">
            <mxPoint y="80" as="sourcePoint" />
            <mxPoint as="targetPoint" />
          </mxGeometry>
        </mxCell>
        <mxCell id="uPeK7lrKcTbneWnr5-uw-113" style="edgeStyle=orthogonalEdgeStyle;rounded=0;orthogonalLoop=1;jettySize=auto;html=1;" edge="1" parent="WIyWlLk6GJQsqaUBKTNV-1">
          <mxGeometry relative="1" as="geometry">
            <mxPoint x="800" y="340" as="targetPoint" />
            <mxPoint x="1000" y="100" as="sourcePoint" />
            <Array as="points">
              <mxPoint x="801" y="100" />
            </Array>
          </mxGeometry>
        </mxCell>
        <mxCell id="uPeK7lrKcTbneWnr5-uw-0" value="CMS Admin" style="rounded=1;whiteSpace=wrap;html=1;" vertex="1" parent="WIyWlLk6GJQsqaUBKTNV-1">
          <mxGeometry x="1030" y="70" width="120" height="60" as="geometry" />
        </mxCell>
        <mxCell id="uPeK7lrKcTbneWnr5-uw-104" value="" style="group" vertex="1" connectable="0" parent="WIyWlLk6GJQsqaUBKTNV-1">
          <mxGeometry x="1200" y="240" width="280" height="260" as="geometry" />
        </mxCell>
        <mxCell id="uPeK7lrKcTbneWnr5-uw-4" value="" style="group" vertex="1" connectable="0" parent="uPeK7lrKcTbneWnr5-uw-104">
          <mxGeometry x="80" y="100" width="120" height="60" as="geometry" />
        </mxCell>
        <mxCell id="uPeK7lrKcTbneWnr5-uw-1" value="" style="endArrow=none;html=1;rounded=0;movable=1;resizable=1;rotatable=1;deletable=1;editable=1;locked=0;connectable=1;" edge="1" parent="uPeK7lrKcTbneWnr5-uw-4">
          <mxGeometry width="50" height="50" relative="1" as="geometry">
            <mxPoint as="sourcePoint" />
            <mxPoint x="120" as="targetPoint" />
          </mxGeometry>
        </mxCell>
        <mxCell id="uPeK7lrKcTbneWnr5-uw-2" value="" style="endArrow=none;html=1;rounded=0;movable=1;resizable=1;rotatable=1;deletable=1;editable=1;locked=0;connectable=1;" edge="1" parent="uPeK7lrKcTbneWnr5-uw-4">
          <mxGeometry width="50" height="50" relative="1" as="geometry">
            <mxPoint y="60" as="sourcePoint" />
            <mxPoint x="120" y="60" as="targetPoint" />
          </mxGeometry>
        </mxCell>
        <mxCell id="uPeK7lrKcTbneWnr5-uw-3" value="BTOC DB" style="text;html=1;strokeColor=none;fillColor=none;align=center;verticalAlign=middle;whiteSpace=wrap;rounded=0;movable=1;resizable=1;rotatable=1;deletable=1;editable=1;locked=0;connectable=1;" vertex="1" parent="uPeK7lrKcTbneWnr5-uw-4">
          <mxGeometry x="30" y="15" width="60" height="30" as="geometry" />
        </mxCell>
        <mxCell id="uPeK7lrKcTbneWnr5-uw-96" value="" style="group" vertex="1" connectable="0" parent="uPeK7lrKcTbneWnr5-uw-104">
          <mxGeometry width="280" height="260" as="geometry" />
        </mxCell>
        <mxCell id="uPeK7lrKcTbneWnr5-uw-97" value="" style="endArrow=none;dashed=1;html=1;rounded=0;" edge="1" parent="uPeK7lrKcTbneWnr5-uw-96">
          <mxGeometry width="50" height="50" relative="1" as="geometry">
            <mxPoint as="sourcePoint" />
            <mxPoint x="280" as="targetPoint" />
          </mxGeometry>
        </mxCell>
        <mxCell id="uPeK7lrKcTbneWnr5-uw-98" value="" style="endArrow=none;dashed=1;html=1;rounded=0;" edge="1" parent="uPeK7lrKcTbneWnr5-uw-96">
          <mxGeometry width="50" height="50" relative="1" as="geometry">
            <mxPoint x="280" y="260" as="sourcePoint" />
            <mxPoint x="280" as="targetPoint" />
          </mxGeometry>
        </mxCell>
        <mxCell id="uPeK7lrKcTbneWnr5-uw-99" value="" style="endArrow=none;dashed=1;html=1;rounded=0;" edge="1" parent="uPeK7lrKcTbneWnr5-uw-96">
          <mxGeometry width="50" height="50" relative="1" as="geometry">
            <mxPoint y="260" as="sourcePoint" />
            <mxPoint x="280" y="260" as="targetPoint" />
          </mxGeometry>
        </mxCell>
        <mxCell id="uPeK7lrKcTbneWnr5-uw-100" value="" style="endArrow=none;dashed=1;html=1;rounded=0;" edge="1" parent="uPeK7lrKcTbneWnr5-uw-96">
          <mxGeometry width="50" height="50" relative="1" as="geometry">
            <mxPoint y="260" as="sourcePoint" />
            <mxPoint as="targetPoint" />
          </mxGeometry>
        </mxCell>
        <mxCell id="uPeK7lrKcTbneWnr5-uw-103" value="Kakuyasu system" style="text;html=1;strokeColor=none;fillColor=none;align=center;verticalAlign=middle;whiteSpace=wrap;rounded=0;" vertex="1" parent="uPeK7lrKcTbneWnr5-uw-96">
          <mxGeometry width="119" height="30" as="geometry" />
        </mxCell>
        <mxCell id="uPeK7lrKcTbneWnr5-uw-107" value="Syncer?" style="rounded=1;whiteSpace=wrap;html=1;" vertex="1" parent="WIyWlLk6GJQsqaUBKTNV-1">
          <mxGeometry x="960" y="340" width="120" height="60" as="geometry" />
        </mxCell>
        <mxCell id="uPeK7lrKcTbneWnr5-uw-111" style="edgeStyle=orthogonalEdgeStyle;rounded=0;orthogonalLoop=1;jettySize=auto;html=1;" edge="1" parent="WIyWlLk6GJQsqaUBKTNV-1" source="uPeK7lrKcTbneWnr5-uw-77">
          <mxGeometry relative="1" as="geometry">
            <mxPoint x="430" y="240" as="targetPoint" />
          </mxGeometry>
        </mxCell>
        <mxCell id="uPeK7lrKcTbneWnr5-uw-77" value="CAT Data Fetcher" style="rounded=1;whiteSpace=wrap;html=1;" vertex="1" parent="WIyWlLk6GJQsqaUBKTNV-1">
          <mxGeometry x="500" y="180" width="242.5" height="60" as="geometry" />
        </mxCell>
        <mxCell id="uPeK7lrKcTbneWnr5-uw-108" style="edgeStyle=orthogonalEdgeStyle;rounded=0;orthogonalLoop=1;jettySize=auto;html=1;" edge="1" parent="WIyWlLk6GJQsqaUBKTNV-1" target="uPeK7lrKcTbneWnr5-uw-77">
          <mxGeometry relative="1" as="geometry">
            <mxPoint x="760" y="370" as="sourcePoint" />
          </mxGeometry>
        </mxCell>
        <mxCell id="uPeK7lrKcTbneWnr5-uw-78" value="ORD API" style="rounded=1;whiteSpace=wrap;html=1;" vertex="1" parent="WIyWlLk6GJQsqaUBKTNV-1">
          <mxGeometry x="690" y="619.9989743589744" width="249.52" height="61.66641025641025" as="geometry" />
        </mxCell>
        <mxCell id="uPeK7lrKcTbneWnr5-uw-79" value="ORD Queue Processor" style="rounded=1;whiteSpace=wrap;html=1;" vertex="1" parent="WIyWlLk6GJQsqaUBKTNV-1">
          <mxGeometry x="390" y="620.0033333333333" width="244.76" height="60.256410256410255" as="geometry" />
        </mxCell>
        <mxCell id="uPeK7lrKcTbneWnr5-uw-118" value="" style="endArrow=classic;html=1;rounded=0;" edge="1" parent="WIyWlLk6GJQsqaUBKTNV-1">
          <mxGeometry width="50" height="50" relative="1" as="geometry">
            <mxPoint x="1200" y="370" as="sourcePoint" />
            <mxPoint x="1080" y="370" as="targetPoint" />
          </mxGeometry>
        </mxCell>
        <mxCell id="uPeK7lrKcTbneWnr5-uw-119" value="" style="endArrow=classic;html=1;rounded=0;" edge="1" parent="WIyWlLk6GJQsqaUBKTNV-1">
          <mxGeometry width="50" height="50" relative="1" as="geometry">
            <mxPoint x="960" y="370" as="sourcePoint" />
            <mxPoint x="880" y="370" as="targetPoint" />
          </mxGeometry>
        </mxCell>
        <mxCell id="uPeK7lrKcTbneWnr5-uw-120" value="" style="endArrow=classic;html=1;rounded=0;entryX=-0.05;entryY=0.85;entryDx=0;entryDy=0;entryPerimeter=0;" edge="1" parent="WIyWlLk6GJQsqaUBKTNV-1" target="uPeK7lrKcTbneWnr5-uw-0">
          <mxGeometry width="50" height="50" relative="1" as="geometry">
            <mxPoint x="860" y="340" as="sourcePoint" />
            <mxPoint x="840" y="130" as="targetPoint" />
            <Array as="points">
              <mxPoint x="860" y="120" />
            </Array>
          </mxGeometry>
        </mxCell>
        <mxCell id="uPeK7lrKcTbneWnr5-uw-121" value="" style="endArrow=classic;html=1;rounded=0;" edge="1" parent="WIyWlLk6GJQsqaUBKTNV-1">
          <mxGeometry width="50" height="50" relative="1" as="geometry">
            <mxPoint x="860" y="620" as="sourcePoint" />
            <mxPoint x="860" y="400" as="targetPoint" />
          </mxGeometry>
        </mxCell>
        <mxCell id="uPeK7lrKcTbneWnr5-uw-122" value="" style="endArrow=classic;html=1;rounded=0;entryX=0.429;entryY=-0.065;entryDx=0;entryDy=0;entryPerimeter=0;" edge="1" parent="WIyWlLk6GJQsqaUBKTNV-1" target="uPeK7lrKcTbneWnr5-uw-78">
          <mxGeometry width="50" height="50" relative="1" as="geometry">
            <mxPoint x="797" y="400" as="sourcePoint" />
            <mxPoint x="650" y="440" as="targetPoint" />
          </mxGeometry>
        </mxCell>
        <mxCell id="uPeK7lrKcTbneWnr5-uw-123" value="Payment Gateway" style="rounded=0;whiteSpace=wrap;html=1;" vertex="1" parent="WIyWlLk6GJQsqaUBKTNV-1">
          <mxGeometry x="390" y="770" width="240" height="60" as="geometry" />
        </mxCell>
        <mxCell id="uPeK7lrKcTbneWnr5-uw-124" value="" style="endArrow=classic;html=1;rounded=0;entryX=0.454;entryY=1.062;entryDx=0;entryDy=0;entryPerimeter=0;exitX=0.467;exitY=-0.017;exitDx=0;exitDy=0;exitPerimeter=0;" edge="1" parent="WIyWlLk6GJQsqaUBKTNV-1" source="uPeK7lrKcTbneWnr5-uw-123" target="uPeK7lrKcTbneWnr5-uw-79">
          <mxGeometry width="50" height="50" relative="1" as="geometry">
            <mxPoint x="500" y="770" as="sourcePoint" />
            <mxPoint x="550" y="720" as="targetPoint" />
          </mxGeometry>
        </mxCell>
        <mxCell id="uPeK7lrKcTbneWnr5-uw-125" value="Mobile App" style="rounded=0;whiteSpace=wrap;html=1;" vertex="1" parent="WIyWlLk6GJQsqaUBKTNV-1">
          <mxGeometry x="-190" y="440" width="120" height="60" as="geometry" />
        </mxCell>
        <mxCell id="uPeK7lrKcTbneWnr5-uw-126" value="" style="endArrow=classic;html=1;rounded=0;entryX=0.425;entryY=1.05;entryDx=0;entryDy=0;entryPerimeter=0;" edge="1" parent="WIyWlLk6GJQsqaUBKTNV-1" target="uPeK7lrKcTbneWnr5-uw-125">
          <mxGeometry width="50" height="50" relative="1" as="geometry">
            <mxPoint x="389" y="800" as="sourcePoint" />
            <mxPoint x="190" y="800" as="targetPoint" />
            <Array as="points">
              <mxPoint x="-140" y="800" />
            </Array>
          </mxGeometry>
        </mxCell>
        <mxCell id="uPeK7lrKcTbneWnr5-uw-127" value="" style="endArrow=classic;html=1;rounded=0;entryX=0.5;entryY=1;entryDx=0;entryDy=0;" edge="1" parent="WIyWlLk6GJQsqaUBKTNV-1" target="uPeK7lrKcTbneWnr5-uw-78">
          <mxGeometry width="50" height="50" relative="1" as="geometry">
            <mxPoint x="630" y="800" as="sourcePoint" />
            <mxPoint x="890" y="810" as="targetPoint" />
            <Array as="points">
              <mxPoint x="815" y="800" />
            </Array>
          </mxGeometry>
        </mxCell>
        <mxCell id="uPeK7lrKcTbneWnr5-uw-128" value="CS Admin" style="rounded=1;whiteSpace=wrap;html=1;" vertex="1" parent="WIyWlLk6GJQsqaUBKTNV-1">
          <mxGeometry x="1050" y="620" width="120" height="60" as="geometry" />
        </mxCell>
        <mxCell id="uPeK7lrKcTbneWnr5-uw-130" value="" style="endArrow=classic;html=1;rounded=0;entryX=1.01;entryY=0.357;entryDx=0;entryDy=0;entryPerimeter=0;" edge="1" parent="WIyWlLk6GJQsqaUBKTNV-1" target="uPeK7lrKcTbneWnr5-uw-78">
          <mxGeometry width="50" height="50" relative="1" as="geometry">
            <mxPoint x="1050" y="640" as="sourcePoint" />
            <mxPoint x="1100" y="590" as="targetPoint" />
          </mxGeometry>
        </mxCell>
        <mxCell id="uPeK7lrKcTbneWnr5-uw-131" value="" style="endArrow=classic;html=1;rounded=0;entryX=0;entryY=0.75;entryDx=0;entryDy=0;" edge="1" parent="WIyWlLk6GJQsqaUBKTNV-1" target="uPeK7lrKcTbneWnr5-uw-128">
          <mxGeometry width="50" height="50" relative="1" as="geometry">
            <mxPoint x="939.52" y="662.98" as="sourcePoint" />
            <mxPoint x="1034.48" y="660" as="targetPoint" />
          </mxGeometry>
        </mxCell>
        <mxCell id="uPeK7lrKcTbneWnr5-uw-132" value="" style="endArrow=classic;html=1;rounded=0;entryX=0.75;entryY=0;entryDx=0;entryDy=0;" edge="1" parent="WIyWlLk6GJQsqaUBKTNV-1">
          <mxGeometry width="50" height="50" relative="1" as="geometry">
            <mxPoint x="170" y="240" as="sourcePoint" />
            <mxPoint x="-110" y="440" as="targetPoint" />
            <Array as="points">
              <mxPoint x="-110" y="240" />
            </Array>
          </mxGeometry>
        </mxCell>
        <mxCell id="uPeK7lrKcTbneWnr5-uw-134" value="" style="endArrow=classic;html=1;rounded=0;entryX=0.75;entryY=0;entryDx=0;entryDy=0;" edge="1" parent="WIyWlLk6GJQsqaUBKTNV-1">
          <mxGeometry width="50" height="50" relative="1" as="geometry">
            <mxPoint x="170" y="150" as="sourcePoint" />
            <mxPoint x="-160" y="440" as="targetPoint" />
            <Array as="points">
              <mxPoint x="-160" y="150" />
            </Array>
          </mxGeometry>
        </mxCell>
      </root>
    </mxGraphModel>
  </diagram>
</mxfile>
